<svg xmlns="http://www.w3.org/2000/svg" xmlns:xlink="http://www.w3.org/1999/xlink" xmlns:lucid="lucid" width="754" height="500">
  <g transform="translate(-46 -103)" lucid:page-tab-id="0_0">
    <path d="M0 0h986v761.8H0z" fill="#fff"/>
    <path d="M60 117.2c0-2.8 2.2-5 5-5h190c2.8 0 5 2.2 5 5v70c0 2.7-2.2 5-5 5H65c-2.8 0-5-2.3-5-5z" fill="#fff"/>
    <path d="M60 112.2h200v40H60z" fill="#ccc"/>
    <path d="M60 117.2c0-2.8 2.2-5 5-5h190c2.8 0 5 2.2 5 5v70c0 2.7-2.2 5-5 5H65c-2.8 0-5-2.3-5-5zm0 35h200" stroke="#999" stroke-width="2" fill="none"/>
    <use xlink:href="#a" transform="translate(75 137.166)"/>
    <use xlink:href="#b" transform="translate(70 171.192)"/>
    <use xlink:href="#c" transform="translate(102.032 171.192)"/>
    <use xlink:href="#d" transform="translate(146.76 171.192)"/>
    <use xlink:href="#e" transform="translate(192.042 171.192)"/>
    <use xlink:href="#f" transform="translate(70 183.14)"/>
    <use xlink:href="#g" transform="translate(105.96 183.14)"/>
    <path d="M320 117c0-2.8 2.2-5 5-5h190c2.8 0 5 2.2 5 5v58c0 2.8-2.2 5-5 5H325c-2.8 0-5-2.2-5-5z" fill="#fff"/>
    <path d="M320 112h200v40H320z" fill="#ccc"/>
    <path d="M320 117c0-2.8 2.2-5 5-5h190c2.8 0 5 2.2 5 5v58c0 2.8-2.2 5-5 5H325c-2.8 0-5-2.2-5-5zm0 35h200" stroke="#999" stroke-width="2" fill="none"/>
    <use xlink:href="#h" transform="translate(335 136.992)"/>
    <use xlink:href="#b" transform="translate(330 170.992)"/>
    <use xlink:href="#i" transform="translate(362.032 170.992)"/>
    <use xlink:href="#j" transform="translate(397.383 170.992)"/>
    <path d="M572 117c0-2.8 2.2-5 5-5h190c2.8 0 5 2.2 5 5v58c0 2.8-2.2 5-5 5H577c-2.8 0-5-2.2-5-5z" fill="#fff"/>
    <path d="M572 112h200v40H572z" fill="#ccc"/>
    <path d="M572 117c0-2.8 2.2-5 5-5h190c2.8 0 5 2.2 5 5v58c0 2.8-2.2 5-5 5H577c-2.8 0-5-2.2-5-5zm0 35h200" stroke="#999" stroke-width="2" fill="none"/>
    <use xlink:href="#k" transform="translate(586.925 136.992)"/>
    <use xlink:href="#b" transform="translate(581.925 170.992)"/>
    <use xlink:href="#l" transform="translate(613.956 170.992)"/>
    <path d="M260 132.2h30v-.2h30" stroke="#000" stroke-width="2" fill="none"/>
    <path d="M281 142.2h-2v-20h2zm39-20.2v1l-17.8 9 17.8 9v1l-.5 1-21.7-11 21.7-11z"/>
    <path d="M520 132h51" stroke="#000" stroke-width="2" fill="none"/>
    <path d="M541 142h-2v-20h2zm30.4-19l-18.2 9 18.2 9-1 2-21.7-11 21.8-11z"/>
    <path d="M572 237c0-2.8 2-5 5-5h190c2.7 0 5 2.2 5 5v58c0 2.8-2.3 5-5 5H577c-3 0-5-2.2-5-5z" fill="#fff"/>
    <path d="M572 232h200v40H572z" fill="#ccc"/>
    <path d="M572 237c0-2.8 2-5 5-5h190c2.7 0 5 2.2 5 5v58c0 2.8-2.3 5-5 5H577c-3 0-5-2.2-5-5zm0 35h200" stroke="#999" stroke-width="2" fill="none"/>
    <use xlink:href="#m" transform="translate(586.85 256.992)"/>
    <use xlink:href="#n" transform="translate(581.85 290.992)"/>
    <use xlink:href="#o" transform="translate(613.88 290.992)"/>
    <path d="M672 180v51" stroke="#000" stroke-width="2" fill="none"/>
    <path d="M682 201h-20v-2h20zm1 29.6l-2 1-9-18.3-9 18.2-2-1 11-21.7z"/>
    <path d="M60 357c0-2.8 2.2-5 5-5h190c2.8 0 5 2.2 5 5v58c0 2.8-2.2 5-5 5H65c-2.8 0-5-2.2-5-5z" fill="#fff"/>
    <path d="M60 352h200v40H60z" fill="#ccc"/>
    <path d="M60 357c0-2.8 2.2-5 5-5h190c2.8 0 5 2.2 5 5v58c0 2.8-2.2 5-5 5H65c-2.8 0-5-2.2-5-5zm0 35h200" stroke="#999" stroke-width="2" fill="none"/>
    <use xlink:href="#p" transform="translate(74.925 376.992)"/>
    <use xlink:href="#b" transform="translate(69.925 410.992)"/>
    <use xlink:href="#q" transform="translate(101.956 410.992)"/>
    <path d="M320 357c0-2.7 2.2-5 5-5h190c2.8 0 5 2.3 5 5v82c0 2.8-2.2 5-5 5H325c-2.8 0-5-2.2-5-5z" fill="#fff"/>
    <path d="M320 352h200v40H320z" fill="#ccc"/>
    <path d="M320 357c0-2.7 2.2-5 5-5h190c2.8 0 5 2.3 5 5v82c0 2.8-2.2 5-5 5H325c-2.8 0-5-2.2-5-5zm0 35h200" stroke="#999" stroke-width="2" fill="none"/>
    <use xlink:href="#r" transform="translate(335 377.027)"/>
    <use xlink:href="#s" transform="translate(330 411.077)"/>
    <use xlink:href="#t" transform="translate(366.928 411.077)"/>
    <use xlink:href="#u" transform="translate(398.434 411.077)"/>
    <use xlink:href="#v" transform="translate(422.195 411.077)"/>
    <use xlink:href="#w" transform="translate(469.164 411.077)"/>
    <use xlink:href="#x" transform="translate(330 423.027)"/>
    <use xlink:href="#y" transform="translate(373.622 423.027)"/>
    <use xlink:href="#z" transform="translate(394.036 423.027)"/>
    <use xlink:href="#A" transform="translate(439.345 423.027)"/>
    <use xlink:href="#B" transform="translate(448.17 423.027)"/>
    <use xlink:href="#C" transform="translate(330 434.977)"/>
    <use xlink:href="#D" transform="translate(370.856 434.977)"/>
    <path d="M572 357c0-2.8 2.2-5 5-5h190c2.8 0 5 2.2 5 5v70c0 2.8-2.2 5-5 5H577c-2.8 0-5-2.2-5-5z" fill="#fff"/>
    <path d="M572 352h200v40H572z" fill="#ccc"/>
    <path d="M572 357c0-2.8 2.2-5 5-5h190c2.8 0 5 2.2 5 5v70c0 2.8-2.2 5-5 5H577c-2.8 0-5-2.2-5-5zm0 35h200" stroke="#999" stroke-width="2" fill="none"/>
    <use xlink:href="#E" transform="translate(587 376.992)"/>
    <use xlink:href="#F" transform="translate(582 411.017)"/>
    <use xlink:href="#G" transform="translate(603.52 411.017)"/>
    <use xlink:href="#H" transform="translate(631.182 411.017)"/>
    <use xlink:href="#I" transform="translate(666.505 411.017)"/>
    <use xlink:href="#J" transform="translate(716.213 411.017)"/>
    <use xlink:href="#K" transform="translate(731.094 411.017)"/>
    <use xlink:href="#L" transform="translate(582 422.966)"/>
    <path d="M320 499c0-2.7 2.2-5 5-5h190c2.8 0 5 2.3 5 5v70c0 2.8-2.2 5-5 5H325c-2.8 0-5-2.2-5-5z" fill="#fff"/>
    <path d="M320 494h200v40H320z" fill="#ccc"/>
    <path d="M320 499c0-2.7 2.2-5 5-5h190c2.8 0 5 2.3 5 5v70c0 2.8-2.2 5-5 5H325c-2.8 0-5-2.2-5-5zm0 35h200" stroke="#999" stroke-width="2" fill="none"/>
    <use xlink:href="#M" transform="translate(334.925 519.027)"/>
    <use xlink:href="#N" transform="translate(329.925 553.052)"/>
    <use xlink:href="#O" transform="translate(366.327 553.052)"/>
    <use xlink:href="#P" transform="translate(401.125 553.052)"/>
    <use xlink:href="#Q" transform="translate(457.416 553.052)"/>
    <use xlink:href="#x" transform="translate(329.925 565.002)"/>
    <use xlink:href="#R" transform="translate(373.546 565.002)"/>
    <path d="M260 372h60" stroke="#000" stroke-width="2" fill="none"/>
    <path d="M281 382h-2v-20h2zm39-20v1l-17.8 9 17.8 9v1l-.5 1-21.7-11 21.7-11z"/>
    <path d="M572 372h-25.5v-.4H521" stroke="#000" stroke-width="2" fill="none"/>
    <path d="M553 382h-2v-20h2zm-9.7-10.4l-21.8 11-1-2 18.3-9-18.2-9 1-2z"/>
    <path d="M420 444v49" stroke="#000" stroke-width="2" fill="none"/>
    <path d="M424.7 458.3h-9.3L420 444z"/>
    <path d="M426 459.3h-12l5-15.3h2zm-9.2-2h6.5l-3.3-10zM421 494h-2v-1h2z"/>
    <path d="M672 352v-51" stroke="#000" stroke-width="2" fill="none"/>
    <path d="M683 351.6l-1 .4h-1l-9-17.8-8.8 17.8H662l-1-.5 11-21.7zm-1-29.6h-20v-2h20z"/>
    <defs>
      <path fill="#333" d="M230 0l2-204L168 0h-37L68-204 70 0H24v-248h70l56 185 57-185h69V0h-46" id="S"/>
      <path fill="#333" d="M133-34C117-15 103 5 69 4 32 3 11-16 11-54c-1-60 55-63 116-61 1-26-3-47-28-47-18 1-26 9-28 27l-52-2c7-38 36-58 82-57s74 22 75 68l1 82c-1 14 12 18 25 15v27c-30 8-71 5-69-32zm-48 3c29 0 43-24 42-57-32 0-66-3-65 30 0 17 8 27 23 27" id="T"/>
      <path fill="#333" d="M135-150c-39-12-60 13-60 57V0H25l-1-190h47c2 13-1 29 3 40 6-28 27-53 61-41v41" id="U"/>
      <path fill="#333" d="M115-3C79 11 28 4 28-45v-112H4v-33h27l15-45h31v45h36v33H77v99c-1 23 16 31 38 25v30" id="V"/>
      <path fill="#333" d="M114-157C55-157 80-60 75 0H25v-261h50l-1 109c12-26 28-41 61-42 86-1 58 113 63 194h-50c-7-57 23-157-34-157" id="W"/>
      <path fill="#333" d="M110-194c64 0 96 36 96 99 0 64-35 99-97 99-61 0-95-36-95-99 0-62 34-99 96-99zm-1 164c35 0 45-28 45-65 0-40-10-65-43-65-34 0-45 26-45 65 0 36 10 65 43 65" id="X"/>
      <path fill="#333" d="M135-194c87-1 58 113 63 194h-50c-7-57 23-157-34-157-59 0-34 97-39 157H25l-1-190h47c2 12-1 28 3 38 12-26 28-41 61-42" id="Y"/>
      <g id="a">
        <use transform="scale(.02766)" xlink:href="#S"/>
        <use transform="translate(8.27) scale(.02766)" xlink:href="#T"/>
        <use transform="translate(13.803) scale(.02766)" xlink:href="#U"/>
        <use transform="translate(17.676) scale(.02766)" xlink:href="#T"/>
        <use transform="translate(23.208) scale(.02766)" xlink:href="#V"/>
        <use transform="translate(26.5) scale(.02766)" xlink:href="#W"/>
        <use transform="translate(32.557) scale(.02766)" xlink:href="#X"/>
        <use transform="translate(38.615) scale(.02766)" xlink:href="#Y"/>
      </g>
      <path fill="#333" d="M220-157c-53 9-28 100-34 157h-49v-107c1-27-5-49-29-50C55-147 81-57 75 0H25l-1-190h47c2 12-1 28 3 38 10-53 101-56 108 0 13-22 24-43 59-42 82 1 51 116 57 194h-49v-107c-1-25-5-48-29-50" id="Z"/>
      <path fill="#333" d="M185-48c-13 30-37 53-82 52C43 2 14-33 14-96s30-98 90-98c62 0 83 45 84 108H66c0 31 8 55 39 56 18 0 30-7 34-22zm-45-69c5-46-57-63-70-21-2 6-4 13-4 21h74" id="aa"/>
      <path fill="#333" d="M35-132v-50h50v50H35zM35 0v-49h50V0H35" id="ab"/>
      <g id="b">
        <use transform="scale(.02766)" xlink:href="#Y"/>
        <use transform="translate(6.058) scale(.02766)" xlink:href="#T"/>
        <use transform="translate(11.59) scale(.02766)" xlink:href="#Z"/>
        <use transform="translate(20.442) scale(.02766)" xlink:href="#aa"/>
        <use transform="translate(25.974) scale(.02766)" xlink:href="#ab"/>
      </g>
      <path fill="#333" d="M67-125c0 54 23 88 75 88 28 0 53-7 68-21v-34h-60v-39h108v91C232-14 192 4 140 4 58 4 20-42 15-125 8-236 126-280 215-234c19 10 29 26 37 47l-47 15c-11-23-29-39-63-39-53 1-75 33-75 86" id="ac"/>
      <path fill="#333" d="M23 0v-37h61v-169l-59 37v-38l62-41h46v211h57V0H23" id="ad"/>
      <g id="c">
        <use transform="scale(.02766)" xlink:href="#ac"/>
        <use transform="translate(7.745) scale(.02766)" xlink:href="#T"/>
        <use transform="translate(13.277) scale(.02766)" xlink:href="#Y"/>
        <use transform="translate(19.335) scale(.02766)" xlink:href="#X"/>
        <use transform="translate(25.393) scale(.02766)" xlink:href="#Y"/>
        <use transform="translate(31.45) scale(.02766)" xlink:href="#ad"/>
        <use transform="translate(36.43) scale(.02766)" xlink:href="#ad"/>
      </g>
      <path fill="#333" d="M24 0v-248h195v40H76v63h132v40H76v65h150V0H24" id="ae"/>
      <path fill="#333" d="M144 0l-44-69L55 0H2l70-98-66-92h53l41 62 40-62h54l-67 91 71 99h-54" id="af"/>
      <path fill="#333" d="M24 0v-248h52v208h133V0H24" id="ag"/>
      <path fill="#333" d="M25-224v-37h50v37H25zM25 0v-190h50V0H25" id="ah"/>
      <path fill="#333" d="M121-226c-27-7-43 5-38 36h38v33H83V0H34v-157H6v-33h28c-9-59 32-81 87-68v32" id="ai"/>
      <g id="d">
        <use transform="scale(.02766)" xlink:href="#ae"/>
        <use transform="translate(6.64) scale(.02766)" xlink:href="#af"/>
        <use transform="translate(12.17) scale(.02766)" xlink:href="#V"/>
        <use transform="translate(15.463) scale(.02766)" xlink:href="#U"/>
        <use transform="translate(19.335) scale(.02766)" xlink:href="#T"/>
        <use transform="translate(24.868) scale(.02766)" xlink:href="#ag"/>
        <use transform="translate(30.925) scale(.02766)" xlink:href="#ah"/>
        <use transform="translate(33.69) scale(.02766)" xlink:href="#ai"/>
        <use transform="translate(36.983) scale(.02766)" xlink:href="#aa"/>
      </g>
      <path fill="#333" d="M182-130c37 4 62 22 62 59C244 23 116-4 24 0v-248c84 5 203-23 205 63 0 31-19 50-47 55zM76-148c40-3 101 13 101-30 0-44-60-28-101-31v61zm0 110c48-3 116 14 116-37 0-48-69-32-116-35v72" id="aj"/>
      <path fill="#333" d="M88-194c31-1 46 15 58 34l-1-101h50l1 261h-48c-2-10 0-23-3-31C134-8 116 4 84 4 32 4 16-41 15-95c0-56 19-97 73-99zm17 164c33 0 40-30 41-66 1-37-9-64-41-64s-38 30-39 65c0 43 13 65 39 65" id="ak"/>
      <g id="e">
        <use transform="scale(.02766)" xlink:href="#aj"/>
        <use transform="translate(7.164) scale(.02766)" xlink:href="#X"/>
        <use transform="translate(13.222) scale(.02766)" xlink:href="#T"/>
        <use transform="translate(18.754) scale(.02766)" xlink:href="#U"/>
        <use transform="translate(22.627) scale(.02766)" xlink:href="#ak"/>
      </g>
      <path fill="#333" d="M137-138c1-29-70-34-71-4 15 46 118 7 119 86 1 83-164 76-172 9l43-7c4 19 20 25 44 25 33 8 57-30 24-41C81-84 22-81 20-136c-2-80 154-74 161-7" id="al"/>
      <g id="f">
        <use transform="scale(.02766)" xlink:href="#ac"/>
        <use transform="translate(7.745) scale(.02766)" xlink:href="#T"/>
        <use transform="translate(13.277) scale(.02766)" xlink:href="#Z"/>
        <use transform="translate(22.13) scale(.02766)" xlink:href="#aa"/>
        <use transform="translate(27.66) scale(.02766)" xlink:href="#al"/>
      </g>
      <path fill="#333" d="M182-182c0 78-84 86-111 141h115V0H12c-6-101 99-100 120-180 1-22-12-31-33-32-23 0-32 14-35 34l-49-3c5-45 32-70 84-70 51 0 83 22 83 69" id="am"/>
      <path fill="#333" d="M101-251c68 0 84 54 84 127C185-50 166 4 99 4S15-52 14-124c-1-75 17-127 87-127zm-1 216c37-5 36-46 36-89s4-89-36-89c-39 0-36 45-36 89 0 43-3 85 36 89" id="an"/>
      <path fill="#333" d="M52 0c1-96 47-148 87-207H15v-41h169v40c-36 62-79 113-81 208H52" id="ao"/>
      <g id="g">
        <use transform="scale(.02766)" xlink:href="#am"/>
        <use transform="translate(5.532) scale(.02766)" xlink:href="#an"/>
        <use transform="translate(11.065) scale(.02766)" xlink:href="#ad"/>
        <use transform="translate(16.597) scale(.02766)" xlink:href="#ao"/>
      </g>
      <path fill="#333" d="M128 0H69L1-190h53L99-40l48-150h52" id="ap"/>
      <g id="h">
        <use transform="scale(.02766)" xlink:href="#ae"/>
        <use transform="translate(6.64) scale(.02766)" xlink:href="#ap"/>
        <use transform="translate(12.17) scale(.02766)" xlink:href="#aa"/>
        <use transform="translate(17.703) scale(.02766)" xlink:href="#Y"/>
        <use transform="translate(23.76) scale(.02766)" xlink:href="#V"/>
      </g>
      <path fill="#333" d="M169-182c-1-43-94-46-97-3 18 66 151 10 154 114 3 95-165 93-204 36-6-8-10-19-12-30l50-8c3 46 112 56 116 5-17-69-150-10-154-114-4-87 153-88 188-35 5 8 8 18 10 28" id="aq"/>
      <path fill="#333" d="M25 0v-261h50V0H25" id="ar"/>
      <path fill="#333" d="M190-63c-7 42-38 67-86 67-59 0-84-38-90-98-12-110 154-137 174-36l-49 2c-2-19-15-32-35-32-30 0-35 28-38 64-6 74 65 87 74 30" id="as"/>
      <g id="i">
        <use transform="scale(.02766)" xlink:href="#aq"/>
        <use transform="translate(6.64) scale(.02766)" xlink:href="#ar"/>
        <use transform="translate(9.405) scale(.02766)" xlink:href="#aa"/>
        <use transform="translate(14.937) scale(.02766)" xlink:href="#Y"/>
        <use transform="translate(20.995) scale(.02766)" xlink:href="#as"/>
        <use transform="translate(26.527) scale(.02766)" xlink:href="#W"/>
      </g>
      <path fill="#333" d="M24-248c93 1 206-16 204 79-1 75-69 88-152 82V0H24v-248zm52 121c47 0 100 7 100-41 0-47-54-39-100-39v80" id="at"/>
      <path fill="#333" d="M12 0v-35l95-120H19v-35h142v35L67-36h103V0H12" id="au"/>
      <g id="j">
        <use transform="scale(.02766)" xlink:href="#at"/>
        <use transform="translate(6.64) scale(.02766)" xlink:href="#ah"/>
        <use transform="translate(9.405) scale(.02766)" xlink:href="#au"/>
        <use transform="translate(14.384) scale(.02766)" xlink:href="#au"/>
        <use transform="translate(19.363) scale(.02766)" xlink:href="#T"/>
      </g>
      <path fill="#333" d="M24 0v-248h52V0H24" id="av"/>
      <g id="k">
        <use transform="scale(.02766)" xlink:href="#av"/>
        <use transform="translate(2.766) scale(.02766)" xlink:href="#V"/>
        <use transform="translate(6.058) scale(.02766)" xlink:href="#aa"/>
        <use transform="translate(11.59) scale(.02766)" xlink:href="#Z"/>
      </g>
      <path fill="#333" d="M135-194c53 0 70 44 70 98 0 56-19 98-73 100-31 1-45-17-59-34 3 33 2 69 2 105H25l-1-265h48c2 10 0 23 3 31 11-24 29-35 60-35zM114-30c33 0 39-31 40-66 0-38-9-64-40-64-56 0-55 130 0 130" id="aw"/>
      <g id="l">
        <use transform="scale(.02766)" xlink:href="#at"/>
        <use transform="translate(6.64) scale(.02766)" xlink:href="#ah"/>
        <use transform="translate(9.405) scale(.02766)" xlink:href="#Y"/>
        <use transform="translate(15.463) scale(.02766)" xlink:href="#aa"/>
        <use transform="translate(20.995) scale(.02766)" xlink:href="#T"/>
        <use transform="translate(26.527) scale(.02766)" xlink:href="#aw"/>
        <use transform="translate(32.585) scale(.02766)" xlink:href="#aw"/>
        <use transform="translate(38.643) scale(.02766)" xlink:href="#ar"/>
        <use transform="translate(41.41) scale(.02766)" xlink:href="#aa"/>
      </g>
      <g id="m">
        <use transform="scale(.02766)" xlink:href="#av"/>
        <use transform="translate(2.766) scale(.02766)" xlink:href="#V"/>
        <use transform="translate(6.058) scale(.02766)" xlink:href="#aa"/>
        <use transform="translate(11.59) scale(.02766)" xlink:href="#Z"/>
        <use transform="translate(20.442) scale(.02766)" xlink:href="#aq"/>
        <use transform="translate(27.08) scale(.02766)" xlink:href="#V"/>
        <use transform="translate(30.372) scale(.02766)" xlink:href="#T"/>
        <use transform="translate(35.904) scale(.02766)" xlink:href="#V"/>
        <use transform="translate(39.196) scale(.02766)" xlink:href="#aa"/>
      </g>
      <g id="n">
        <use transform="scale(.02766)" xlink:href="#Y"/>
        <use transform="translate(6.058) scale(.02766)" xlink:href="#T"/>
        <use transform="translate(11.59) scale(.02766)" xlink:href="#Z"/>
        <use transform="translate(20.442) scale(.02766)" xlink:href="#aa"/>
        <use transform="translate(25.974) scale(.02766)" xlink:href="#ab"/>
      </g>
      <path fill="#333" d="M76-208v77h127v40H76V0H24v-248h183v40H76" id="ax"/>
      <g id="o">
        <use transform="scale(.02766)" xlink:href="#ax"/>
        <use transform="translate(6.058) scale(.02766)" xlink:href="#X"/>
        <use transform="translate(12.116) scale(.02766)" xlink:href="#U"/>
      </g>
      <path fill="#333" d="M238-95c0 69-44 99-111 99C63 4 22-25 22-93v-155h51v151c-1 38 19 59 55 60 90 1 49-130 58-211h52v153" id="ay"/>
      <g id="p">
        <use transform="scale(.02766)" xlink:href="#ay"/>
        <use transform="translate(7.164) scale(.02766)" xlink:href="#al"/>
        <use transform="translate(12.697) scale(.02766)" xlink:href="#aa"/>
        <use transform="translate(18.23) scale(.02766)" xlink:href="#U"/>
      </g>
      <g id="q">
        <use transform="scale(.02766)" xlink:href="#ac"/>
        <use transform="translate(7.745) scale(.02766)" xlink:href="#T"/>
        <use transform="translate(13.277) scale(.02766)" xlink:href="#Y"/>
        <use transform="translate(19.335) scale(.02766)" xlink:href="#X"/>
        <use transform="translate(25.393) scale(.02766)" xlink:href="#Y"/>
        <use transform="translate(31.45) scale(.02766)" xlink:href="#ad"/>
        <use transform="translate(36.43) scale(.02766)" xlink:href="#ad"/>
      </g>
      <path fill="#333" d="M195-6C206 82 75 100 31 46c-4-6-6-13-8-21l49-6c3 16 16 24 34 25 40 0 42-37 40-79-11 22-30 35-61 35-53 0-70-43-70-97 0-56 18-96 73-97 30 0 46 14 59 34l2-30h47zm-90-29c32 0 41-27 41-63 0-35-9-62-40-62-32 0-39 29-40 63 0 36 9 62 39 62" id="az"/>
      <g id="r">
        <use transform="scale(.02766)" xlink:href="#at"/>
        <use transform="translate(6.64) scale(.02766)" xlink:href="#ar"/>
        <use transform="translate(9.405) scale(.02766)" xlink:href="#aa"/>
        <use transform="translate(14.937) scale(.02766)" xlink:href="#ak"/>
        <use transform="translate(20.995) scale(.02766)" xlink:href="#az"/>
        <use transform="translate(27.053) scale(.02766)" xlink:href="#aa"/>
      </g>
      <path fill="#333" d="M67-93c0 74 22 123 53 168H70C40 30 18-18 18-93s22-123 52-168h50c-32 44-53 94-53 168" id="aA"/>
      <path fill="#333" d="M199 0l-22-63H83L61 0H9l90-248h61L250 0h-51zm-33-102l-36-108c-10 38-24 72-36 108h72" id="aB"/>
      <g id="s">
        <use transform="scale(.02766)" xlink:href="#aA"/>
        <use transform="translate(3.292) scale(.02766)" xlink:href="#aB"/>
        <use transform="translate(10.456) scale(.02766)" xlink:href="#as"/>
        <use transform="translate(15.988) scale(.02766)" xlink:href="#V"/>
        <use transform="translate(19.28) scale(.02766)" xlink:href="#ah"/>
        <use transform="translate(22.046) scale(.02766)" xlink:href="#X"/>
        <use transform="translate(28.104) scale(.02766)" xlink:href="#Y"/>
      </g>
      <path fill="#333" d="M231 0h-52l-39-155L100 0H48L-1-190h46L77-45c9-52 24-97 36-145h53l37 145 32-145h46" id="aC"/>
      <g id="t">
        <use transform="scale(.02766)" xlink:href="#aC"/>
        <use transform="translate(7.745) scale(.02766)" xlink:href="#W"/>
        <use transform="translate(13.803) scale(.02766)" xlink:href="#aa"/>
        <use transform="translate(19.335) scale(.02766)" xlink:href="#U"/>
        <use transform="translate(23.208) scale(.02766)" xlink:href="#aa"/>
      </g>
      <path fill="#333" d="M85 4C-2 5 27-109 22-190h50c7 57-23 150 33 157 60-5 35-97 40-157h50l1 190h-47c-2-12 1-28-3-38-12 25-28 42-61 42" id="aD"/>
      <g id="u">
        <use transform="scale(.02766)" xlink:href="#aD"/>
        <use transform="translate(6.058) scale(.02766)" xlink:href="#al"/>
        <use transform="translate(11.59) scale(.02766)" xlink:href="#aa"/>
        <use transform="translate(17.122) scale(.02766)" xlink:href="#U"/>
      </g>
      <g id="v">
        <use transform="scale(.02766)" xlink:href="#aw"/>
        <use transform="translate(6.058) scale(.02766)" xlink:href="#U"/>
        <use transform="translate(9.93) scale(.02766)" xlink:href="#X"/>
        <use transform="translate(15.988) scale(.02766)" xlink:href="#Z"/>
        <use transform="translate(24.84) scale(.02766)" xlink:href="#ah"/>
        <use transform="translate(27.606) scale(.02766)" xlink:href="#al"/>
        <use transform="translate(33.138) scale(.02766)" xlink:href="#aa"/>
        <use transform="translate(38.67) scale(.02766)" xlink:href="#al"/>
      </g>
      <use transform="scale(.02766)" xlink:href="#T" id="w"/>
      <path fill="#333" d="M123 10C108 53 80 86 19 72V37c35 8 53-11 59-39L3-190h52l48 148c12-52 28-100 44-148h51" id="aE"/>
      <g id="x">
        <use transform="scale(.02766)" xlink:href="#aw"/>
        <use transform="translate(6.058) scale(.02766)" xlink:href="#T"/>
        <use transform="translate(11.59) scale(.02766)" xlink:href="#aE"/>
        <use transform="translate(17.122) scale(.02766)" xlink:href="#Z"/>
        <use transform="translate(25.974) scale(.02766)" xlink:href="#aa"/>
        <use transform="translate(31.506) scale(.02766)" xlink:href="#Y"/>
        <use transform="translate(37.564) scale(.02766)" xlink:href="#V"/>
      </g>
      <g id="y">
        <use transform="scale(.02766)" xlink:href="#T"/>
        <use transform="translate(5.532) scale(.02766)" xlink:href="#Y"/>
        <use transform="translate(11.59) scale(.02766)" xlink:href="#ak"/>
      </g>
      <g id="z">
        <use transform="scale(.02766)" xlink:href="#T"/>
        <use transform="translate(5.532) scale(.02766)" xlink:href="#ar"/>
        <use transform="translate(8.298) scale(.02766)" xlink:href="#ar"/>
        <use transform="translate(11.065) scale(.02766)" xlink:href="#X"/>
        <use transform="translate(17.122) scale(.02766)" xlink:href="#as"/>
        <use transform="translate(22.655) scale(.02766)" xlink:href="#T"/>
        <use transform="translate(28.187) scale(.02766)" xlink:href="#V"/>
        <use transform="translate(31.48) scale(.02766)" xlink:href="#aa"/>
        <use transform="translate(37.01) scale(.02766)" xlink:href="#al"/>
      </g>
      <g id="A">
        <use transform="scale(.02766)" xlink:href="#ah"/>
        <use transform="translate(2.766) scale(.02766)" xlink:href="#V"/>
      </g>
      <g id="B">
        <use transform="scale(.02766)" xlink:href="#V"/>
        <use transform="translate(3.292) scale(.02766)" xlink:href="#X"/>
        <use transform="translate(9.35) scale(.02766)" xlink:href="#aC"/>
        <use transform="translate(17.095) scale(.02766)" xlink:href="#T"/>
        <use transform="translate(22.627) scale(.02766)" xlink:href="#U"/>
        <use transform="translate(26.5) scale(.02766)" xlink:href="#ak"/>
      </g>
      <g id="C">
        <use transform="scale(.02766)" xlink:href="#Z"/>
        <use transform="translate(8.852) scale(.02766)" xlink:href="#aD"/>
        <use transform="translate(14.91) scale(.02766)" xlink:href="#ar"/>
        <use transform="translate(17.676) scale(.02766)" xlink:href="#V"/>
        <use transform="translate(20.967) scale(.02766)" xlink:href="#ah"/>
        <use transform="translate(23.733) scale(.02766)" xlink:href="#aw"/>
        <use transform="translate(29.79) scale(.02766)" xlink:href="#ar"/>
        <use transform="translate(32.557) scale(.02766)" xlink:href="#aa"/>
      </g>
      <path fill="#333" d="M135-194c52 0 70 43 70 98 0 56-19 99-73 100-30 1-46-15-58-35L72 0H24l1-261h50v104c11-23 29-37 60-37zM114-30c31 0 40-27 40-66 0-37-7-63-39-63s-41 28-41 65c0 36 8 64 40 64" id="aF"/>
      <path fill="#333" d="M102-93c0 74-22 123-52 168H0C30 29 54-18 53-93c0-74-22-123-53-168h50c30 45 52 94 52 168" id="aG"/>
      <g id="D">
        <use transform="scale(.02766)" xlink:href="#aF"/>
        <use transform="translate(6.058) scale(.02766)" xlink:href="#ah"/>
        <use transform="translate(8.824) scale(.02766)" xlink:href="#ak"/>
        <use transform="translate(14.882) scale(.02766)" xlink:href="#al"/>
        <use transform="translate(20.414) scale(.02766)" xlink:href="#aG"/>
      </g>
      <g id="E">
        <use transform="scale(.02766)" xlink:href="#aj"/>
        <use transform="translate(7.164) scale(.02766)" xlink:href="#ah"/>
        <use transform="translate(9.93) scale(.02766)" xlink:href="#ak"/>
      </g>
      <g id="F">
        <use transform="scale(.02766)" xlink:href="#aA"/>
        <use transform="translate(3.292) scale(.02766)" xlink:href="#ae"/>
        <use transform="translate(9.93) scale(.02766)" xlink:href="#af"/>
        <use transform="translate(15.463) scale(.02766)" xlink:href="#ab"/>
      </g>
      <path fill="#333" d="M111-147c44 9 85 22 84 75-1 49-35 65-84 68v31H91V-4C40-5 12-27 5-72l45-8c4 24 15 38 41 40-2-22 4-51-2-69-39-10-76-22-76-72 0-47 35-60 78-63v-23h20v23c47 1 70 23 78 62l-46 7c-4-18-12-32-32-34v62zm-20-63c-33-4-45 46-13 54 4 1 8 2 13 4v-58zm20 170c39 5 53-51 15-60-7-2-7-2-15-4v64" id="aH"/>
      <path fill="#333" d="M139-81c0-46-55-55-73-27H18l9-140h149v37H72l-4 63c44-38 133-4 122 66C201 21 21 35 11-62l49-4c5 18 15 30 39 30 26 0 40-18 40-45" id="aI"/>
      <path fill="#333" d="M24 0v-54h51V0H24" id="aJ"/>
      <g id="G">
        <use transform="scale(.02766)" xlink:href="#aH"/>
        <use transform="translate(5.532) scale(.02766)" xlink:href="#aI"/>
        <use transform="translate(11.065) scale(.02766)" xlink:href="#aJ"/>
        <use transform="translate(13.83) scale(.02766)" xlink:href="#aI"/>
        <use transform="translate(19.363) scale(.02766)" xlink:href="#an"/>
      </g>
      <g id="H">
        <use transform="scale(.02766)" xlink:href="#V"/>
        <use transform="translate(3.292) scale(.02766)" xlink:href="#X"/>
        <use transform="translate(9.35) scale(.02766)" xlink:href="#aC"/>
        <use transform="translate(17.095) scale(.02766)" xlink:href="#T"/>
        <use transform="translate(22.627) scale(.02766)" xlink:href="#U"/>
        <use transform="translate(26.5) scale(.02766)" xlink:href="#ak"/>
      </g>
      <g id="I">
        <use transform="scale(.02766)" xlink:href="#at"/>
        <use transform="translate(6.64) scale(.02766)" xlink:href="#ah"/>
        <use transform="translate(9.405) scale(.02766)" xlink:href="#Y"/>
        <use transform="translate(15.463) scale(.02766)" xlink:href="#aa"/>
        <use transform="translate(20.995) scale(.02766)" xlink:href="#T"/>
        <use transform="translate(26.527) scale(.02766)" xlink:href="#aw"/>
        <use transform="translate(32.585) scale(.02766)" xlink:href="#aw"/>
        <use transform="translate(38.643) scale(.02766)" xlink:href="#ar"/>
        <use transform="translate(41.41) scale(.02766)" xlink:href="#aa"/>
      </g>
      <g id="J">
        <use transform="scale(.02766)" xlink:href="#X"/>
        <use transform="translate(6.058) scale(.02766)" xlink:href="#Y"/>
      </g>
      <g id="K">
        <use transform="scale(.02766)" xlink:href="#V"/>
        <use transform="translate(3.292) scale(.02766)" xlink:href="#W"/>
        <use transform="translate(9.35) scale(.02766)" xlink:href="#aa"/>
      </g>
      <g id="L">
        <use transform="scale(.02766)" xlink:href="#aw"/>
        <use transform="translate(6.058) scale(.02766)" xlink:href="#ah"/>
        <use transform="translate(8.824) scale(.02766)" xlink:href="#au"/>
        <use transform="translate(13.803) scale(.02766)" xlink:href="#au"/>
        <use transform="translate(18.782) scale(.02766)" xlink:href="#T"/>
        <use transform="translate(24.314) scale(.02766)" xlink:href="#aG"/>
      </g>
      <g id="M">
        <use transform="scale(.02766)" xlink:href="#at"/>
        <use transform="translate(6.64) scale(.02766)" xlink:href="#T"/>
        <use transform="translate(12.17) scale(.02766)" xlink:href="#aE"/>
        <use transform="translate(17.703) scale(.02766)" xlink:href="#Z"/>
        <use transform="translate(26.555) scale(.02766)" xlink:href="#aa"/>
        <use transform="translate(32.087) scale(.02766)" xlink:href="#Y"/>
        <use transform="translate(38.145) scale(.02766)" xlink:href="#V"/>
      </g>
      <g id="N">
        <use transform="scale(.02766)" xlink:href="#aA"/>
        <use transform="translate(3.292) scale(.02766)" xlink:href="#aB"/>
        <use transform="translate(10.456) scale(.02766)" xlink:href="#as"/>
        <use transform="translate(15.988) scale(.02766)" xlink:href="#V"/>
        <use transform="translate(19.28) scale(.02766)" xlink:href="#aD"/>
        <use transform="translate(25.338) scale(.02766)" xlink:href="#T"/>
        <use transform="translate(30.87) scale(.02766)" xlink:href="#ar"/>
      </g>
      <g id="O">
        <use transform="scale(.02766)" xlink:href="#Z"/>
        <use transform="translate(8.852) scale(.02766)" xlink:href="#X"/>
        <use transform="translate(14.91) scale(.02766)" xlink:href="#Y"/>
        <use transform="translate(20.967) scale(.02766)" xlink:href="#aa"/>
        <use transform="translate(26.5) scale(.02766)" xlink:href="#aE"/>
      </g>
      <g id="P">
        <use transform="scale(.02766)" xlink:href="#V"/>
        <use transform="translate(3.292) scale(.02766)" xlink:href="#U"/>
        <use transform="translate(7.164) scale(.02766)" xlink:href="#T"/>
        <use transform="translate(12.697) scale(.02766)" xlink:href="#Y"/>
        <use transform="translate(18.754) scale(.02766)" xlink:href="#al"/>
        <use transform="translate(24.287) scale(.02766)" xlink:href="#T"/>
        <use transform="translate(29.82) scale(.02766)" xlink:href="#as"/>
        <use transform="translate(35.35) scale(.02766)" xlink:href="#V"/>
        <use transform="translate(38.643) scale(.02766)" xlink:href="#ah"/>
        <use transform="translate(41.41) scale(.02766)" xlink:href="#X"/>
        <use transform="translate(47.467) scale(.02766)" xlink:href="#Y"/>
      </g>
      <g id="Q">
        <use transform="scale(.02766)" xlink:href="#V"/>
        <use transform="translate(3.292) scale(.02766)" xlink:href="#W"/>
        <use transform="translate(9.35) scale(.02766)" xlink:href="#U"/>
        <use transform="translate(13.222) scale(.02766)" xlink:href="#X"/>
        <use transform="translate(19.28) scale(.02766)" xlink:href="#aD"/>
        <use transform="translate(25.338) scale(.02766)" xlink:href="#az"/>
        <use transform="translate(31.396) scale(.02766)" xlink:href="#W"/>
      </g>
      <g id="R">
        <use transform="scale(.02766)" xlink:href="#aw"/>
        <use transform="translate(6.058) scale(.02766)" xlink:href="#U"/>
        <use transform="translate(9.93) scale(.02766)" xlink:href="#X"/>
        <use transform="translate(15.988) scale(.02766)" xlink:href="#as"/>
        <use transform="translate(21.52) scale(.02766)" xlink:href="#aa"/>
        <use transform="translate(27.053) scale(.02766)" xlink:href="#al"/>
        <use transform="translate(32.585) scale(.02766)" xlink:href="#al"/>
        <use transform="translate(38.117) scale(.02766)" xlink:href="#X"/>
        <use transform="translate(44.175) scale(.02766)" xlink:href="#U"/>
        <use transform="translate(48.048) scale(.02766)" xlink:href="#aG"/>
      </g>
    </defs>
  </g>
</svg>
